<svg width="16" height="24" viewBox="0 0 16 24" fill="none" xmlns="http://www.w3.org/2000/svg">
<path fill-rule="evenodd" clip-rule="evenodd" d="M6.98049 19.7407L8 18.8649L9.01951 19.7407L8 21L6.98049 19.7407ZM8.84794 17.7736C10.4299 15.6836 13.6725 11.1211 13.6725 8.83712C13.6725 5.8163 11.1328 3.36743 8 3.36743C4.86716 3.36743 2.32749 5.8163 2.32749 8.83712C2.32749 11.1211 5.57009 15.6836 7.15206 17.7736C7.66246 18.4479 8 18.8649 8 18.8649C6.98049 19.7407 6.98062 19.7408 6.98049 19.7407L6.97988 19.7399L6.97495 19.7338L6.96133 19.7169L6.91085 19.6538C6.86723 19.5992 6.80409 19.5197 6.72422 19.418C6.56453 19.2146 6.33765 18.9223 6.06594 18.5625C5.5235 17.8444 4.79758 16.8512 4.06909 15.7574C3.34391 14.6685 2.59866 13.4538 2.02954 12.2962C1.4875 11.1936 1 9.93958 1 8.83712C1 4.9774 4.21797 2 8 2C11.782 2 15 4.9774 15 8.83712C15 9.93958 14.5125 11.1936 13.9705 12.2962C13.4013 13.4538 12.6561 14.6685 11.9309 15.7574C11.2024 16.8512 10.4765 17.8444 9.93406 18.5625C9.66235 18.9223 9.43547 19.2146 9.27578 19.418C9.19591 19.5197 9.13277 19.5992 9.08915 19.6538L9.03867 19.7169L9.02505 19.7338L9.02012 19.7399C9.01999 19.7401 9.01951 19.7407 8 18.8649C8 18.8649 8.33754 18.4479 8.84794 17.7736ZM7.9693 10.2046C8.51916 10.2046 8.96491 9.74543 8.96491 9.17902C8.96491 8.61261 8.51916 8.15345 7.9693 8.15345C7.41944 8.15345 6.97369 8.61261 6.97369 9.17902C6.97369 9.74543 7.41944 10.2046 7.9693 10.2046ZM10.2924 9.17902C10.2924 10.5006 9.25231 11.572 7.9693 11.572C6.68629 11.572 5.6462 10.5006 5.6462 9.17902C5.6462 7.8574 6.68629 6.78601 7.9693 6.78601C9.25231 6.78601 10.2924 7.8574 10.2924 9.17902Z" fill="#93D33E"/>
</svg>
