<svg width="48" height="48" viewBox="0 0 48 48" fill="none" xmlns="http://www.w3.org/2000/svg">
<g id="Telegram">
<g id="Telegram_2">
<rect id="Rectangle" width="48" height="48" rx="24" fill="#419FD9"/>
<path id="Exclude" fill-rule="evenodd" clip-rule="evenodd" d="M29.3351 35.8843C31.0126 36.6182 31.6417 35.0805 31.6417 35.0805L36.0801 12.7836C36.0451 11.2808 34.0181 12.1895 34.0181 12.1895L9.17002 21.94C9.17002 21.94 7.98179 22.3594 8.08663 23.0933C8.19147 23.8272 9.13507 24.1767 9.13507 24.1767L15.3908 26.2736C15.3908 26.2736 17.278 32.4594 17.6624 33.6476C18.0119 34.8009 18.3264 34.8359 18.3264 34.8359C18.6759 34.9757 18.9904 34.731 18.9904 34.731L23.0444 31.0615L29.3351 35.8843ZM30.4185 16.7327C30.4185 16.7327 31.2922 16.2085 31.2572 16.7327C31.2572 16.7327 31.397 16.8026 30.9427 17.2919C30.5233 17.7112 20.633 26.5881 19.305 27.7763C19.2001 27.8462 19.1302 27.951 19.1302 28.0908L18.7458 31.376C18.6759 31.7254 18.2216 31.7604 18.1168 31.4459L16.4742 26.0638C16.4043 25.8542 16.4742 25.6095 16.6839 25.4697L30.4185 16.7327Z" fill="white"/>
</g>
</g>
</svg>
