<svg width="50" height="55" viewBox="0 0 50 55" fill="none" xmlns="http://www.w3.org/2000/svg">
<path fill-rule="evenodd" clip-rule="evenodd" d="M23.4228 17.6615C26.8257 18.8405 30.9352 15.8973 32.6016 11.0876C34.268 6.27799 33.3574 1.59546 29.4574 0.244202C26.0544 -0.934815 21.9269 2.2858 20.2605 7.09546C19.2431 12.8731 20.0199 16.4825 23.4228 17.6615ZM16.3335 15.212C15.7892 19.9829 12.3387 24.0037 8.76052 23.5955C5.18233 23.1873 3.21645 18.8664 3.76072 14.0955C4.30499 9.32457 7.26192 5.42622 10.8401 5.83443C14.4183 6.24263 16.8778 10.4411 16.3335 15.212ZM26.8506 28.6839C32.2604 36.0954 31.7604 53.0954 25.2592 54.0939C22.3288 54.5439 20.7929 52.3964 19.0111 49.9049C17.6488 48 16.1427 45.8941 13.7597 44.5943C11.8752 43.2237 9.46252 42.4404 7.1853 41.7009C2.81641 40.2824 -1.05393 39.0257 0.260338 34.0953C1.2613 30.342 15.2605 19.0955 26.8506 28.6839ZM44.4462 23.1783C40.3879 26.4597 35.2624 26.8495 32.998 24.049C30.7337 21.2485 32.188 16.3182 36.2463 13.0369C40.3046 9.75552 45.4301 9.3657 47.6945 12.1662C49.9588 14.9667 48.5045 19.897 44.4462 23.1783ZM34.368 41.0598C36.4445 43.6281 41.0672 43.3335 44.6929 40.4019C48.3187 37.4703 51.0217 33.5108 48.2603 30.0956C46.1837 27.5274 40.3849 28.6649 36.7592 31.5965C33.1335 34.5282 32.2914 38.4916 34.368 41.0598Z" fill="#93D33E"/>
</svg>
